<mxfile host="app.diagrams.net" modified="2024-06-05T14:40:59.649Z" agent="Mozilla/5.0 (X11; Ubuntu; Linux x86_64; rv:126.0) Gecko/20100101 Firefox/126.0" version="24.4.10" etag="nOC-z-kr0n_7p_3E7pPP" type="github">
  <diagram name="Pagina-1" id="7QS6gORh708bt9Vw883q">
    <mxGraphModel>
      <root>
        <mxCell id="0" />
        <mxCell id="1" parent="0" />
      </root>
    </mxGraphModel>
  </diagram>
</mxfile>
